<svg xmlns="http://www.w3.org/2000/svg" viewBox="0 0 209.49 306.25"><title>Logo_footer</title><path d="M138.43,22.5A17.46,17.46,0,0,1,142,57.05l2,3.38a21.21,21.21,0,1,0-20.5-35.49l2,3.38A17.44,17.44,0,0,1,138.43,22.5Z" fill="#fff"/><path d="M138.43,15.23a24.73,24.73,0,0,1,7.35,48.34l2.71,4.7a30,30,0,1,0-29.56-51.16l2.72,4.69A24.62,24.62,0,0,1,138.43,15.23Z" fill="#fff"/><path d="M149.92,40a11.49,11.49,0,0,0-21.27-6l10.12,17.51A11.49,11.49,0,0,0,149.92,40Z" fill="#fff"/><polygon points="104.71 0 94.71 17.32 104.74 34.7 114.76 17.35 104.71 0" fill="#fff"/><polygon points="92.7 20.8 82.65 38.2 92.7 55.58 102.73 38.19 92.7 20.8" fill="#fff"/><polygon points="80.75 41.7 70.71 59.11 80.75 76.49 90.78 59.1 80.75 41.7" fill="#fff"/><polygon points="92.69 97.31 82.65 79.9 116.78 20.8 126.83 38.18 102.74 79.94 136.87 139.04 92.7 139.01 58.58 79.91 68.55 62.42 102.6 121.54 106.88 121.78 92.69 97.31" fill="#fff"/><polygon points="189.14 180.76 118.77 59.1 128.81 41.7 209.11 180.76 189.14 180.76" fill="#fff"/><polygon points="116.78 62.55 172.78 159.87 84.87 159.87 94.63 142.49 142.81 142.6 106.74 79.9 116.78 62.55" fill="#fff"/><polygon points="60.6 159.85 80.71 159.85 90.68 142.49 70.63 142.49 60.6 159.85" fill="#fff"/><polygon points="36.45 159.85 56.55 159.85 66.56 142.42 46.51 142.42 36.45 159.85" fill="#fff"/><polygon points="56.57 83.38 88.68 138.72 44.49 138.93 20.45 180.73 0.38 180.73 34.49 121.61 58.58 121.63 46.53 100.76 56.57 83.38" fill="#fff"/><polygon points="174.26 165.32 151.09 173.52 127.91 165.32 104.73 173.52 81.48 165.32 58.23 173.52 35.05 165.32 35.05 176.69 58.23 184.88 81.48 176.85 104.73 184.88 127.91 176.69 151.09 184.88 174.26 176.69 174.26 165.32" fill="#fff"/><polygon points="197.44 188.73 174.26 180.54 151.09 188.73 127.91 180.54 104.73 188.73 81.48 180.54 58.23 188.73 35.05 180.54 11.88 188.73 11.88 200.1 35.05 191.9 58.23 200.1 81.48 192.07 104.73 200.1 127.91 191.9 151.09 200.1 174.26 191.9 197.44 200.1 197.44 188.73" fill="#fff"/><path d="M0,287.69a6.69,6.69,0,0,1,3.19-.57l5.48,15.12,5.7-15.12a5.33,5.33,0,0,1,2.94.53l-7.24,18.28a10.84,10.84,0,0,1-3,0Z" fill="#fff"/><path d="M19.49,288.12a6.79,6.79,0,0,1,3.3-1l0,18.63A5.39,5.39,0,0,1,20,306S20,294.89,19.49,288.12Z" fill="#fff"/><path d="M27,288.12a6.76,6.76,0,0,1,3.26-1V303.2h8.57a4.12,4.12,0,0,1,0,2.62H27.52S27.48,294.89,27,288.12Z" fill="#fff"/><path d="M41.38,288.12a6.76,6.76,0,0,1,3.26-1V303.2H53.2a4,4,0,0,1,0,2.62H41.88S41.85,294.89,41.38,288.12Z" fill="#fff"/><path d="M55.82,288c.5-.36,2-.71,4.73-.71h7.92a4.38,4.38,0,0,1,0,2.61H59l0,5.34h8.38a4.3,4.3,0,0,1,0,2.61H59v5.34h9.42a3.86,3.86,0,0,1,0,2.62H56.25S56.21,294.78,55.82,288Z" fill="#fff"/><path d="M84.26,305.82s0-11.18-.43-17.95c.5-.36,2-.68,4.73-.68h2.18c6.63,0,9.35,4.12,9.35,9.42s-2.83,9.21-9.24,9.21ZM87,303.2h3.83a10.19,10.19,0,0,0,4.23-.71,8.61,8.61,0,0,0,1.86-5.88c0-3.69-1.79-6.81-6.23-6.81H87.05Z" fill="#fff"/><path d="M105.25,292.85a3.14,3.14,0,0,1-1.9,0l3-7.17a4,4,0,0,1,3.41,0Z" fill="#fff"/><path d="M108.07,305.5l7.74-18.38a10.12,10.12,0,0,1,3,0l7.56,18.3a6.78,6.78,0,0,1-3.19.58l-1.93-4.91H113l-2,4.91A6,6,0,0,1,108.07,305.5Zm6-7.06h6.13l-3-7.74Z" fill="#fff"/><path d="M127.13,296.61c0-5.3,2.91-9.6,9.46-9.6a13.19,13.19,0,0,1,6.59,1.65,6,6,0,0,1-1.18,2.68,12.34,12.34,0,0,0-5.87-1.64,8.34,8.34,0,0,0-3.87.75c-1,1-1.94,3.33-1.94,6.16,0,3.73,1.9,6.95,6.31,6.95a10.05,10.05,0,0,0,4.33-1v-4.7H136.2a6.38,6.38,0,0,1,0-2.61h7.49v9.06a13.56,13.56,0,0,1-7.06,1.94C130,306.25,127.13,302,127.13,296.61Z" fill="#fff"/><path d="M146.16,305.5l7.74-18.38a10.12,10.12,0,0,1,3,0l7.56,18.3a6.78,6.78,0,0,1-3.19.58l-1.94-4.91H151.1l-2,4.91A5.93,5.93,0,0,1,146.16,305.5Zm6-7.06h6.12l-3-7.74Z" fill="#fff"/><path d="M167.37,305.82s0-11.18-.43-17.95c.5-.36,2-.68,4.73-.68h2.18c6.63,0,9.35,4.12,9.35,9.42s-2.83,9.21-9.24,9.21Zm2.76-2.62H174a10.19,10.19,0,0,0,4.23-.71,8.61,8.61,0,0,0,1.86-5.88c0-3.69-1.79-6.81-6.23-6.81h-3.66Z" fill="#fff"/><path d="M186.54,288.12a6.71,6.71,0,0,1,3.29-1l0,18.63A5.39,5.39,0,0,1,187,306S187,294.89,186.54,288.12Z" fill="#fff"/><path d="M199.9,298.12h-2.54v7.7a6.17,6.17,0,0,1-2.8.18s0-11.54-.43-18.1c1-.5,4.12-.78,6.09-.78,5.05,0,7.35,1.86,7.35,5.44,0,2.8-1.33,4.73-4.63,5.34l6.06,7.81a7.89,7.89,0,0,1-3.58.29Zm-2.54-2.48h3a7.83,7.83,0,0,0,3-.32,3.38,3.38,0,0,0,1-2.65c0-2.33-1.68-2.94-4.23-2.94a28.53,28.53,0,0,0-2.86.18Z" fill="#fff"/><path d="M38.89,274.72a14.74,14.74,0,0,0-2.49,2.41l2.49,2.45,2.45-2.3S40,275.82,38.89,274.72Z" fill="#fff"/><path d="M46.17,265.28a19.73,19.73,0,0,0-.84-5.53,5.11,5.11,0,0,0-3.11,1.36,14.36,14.36,0,0,1,1.17,5.78,16.74,16.74,0,0,1-.14,2H13.37a6.29,6.29,0,0,1-2.67-.65V268a22,22,0,0,0-2.12-8.34,5.55,5.55,0,0,0-2.93,1.72c1.58,2.78,2.71,5,3.08,7.86-1.47,3.52-4.25,6-8.42,8.2A4.16,4.16,0,0,0,3,279.58a16.21,16.21,0,0,0,7.39-9.29,3.76,3.76,0,0,0,2.94,1.24H45.11A20.61,20.61,0,0,0,46.17,265.28Z" fill="#fff"/><path d="M41.53,277.13l2.52,2.45,2.42-2.3s-1.32-1.46-2.42-2.56A14.27,14.27,0,0,0,41.53,277.13Z" fill="#fff"/><path d="M54.92,259a13.41,13.41,0,0,1,3.22,8.75,8.69,8.69,0,0,1-.08,1.09,32.75,32.75,0,0,1-8.78-.91,6.8,6.8,0,0,0,0,3.11,51,51,0,0,0,8.86.48h2a17.74,17.74,0,0,0-2.56-14.6A4.08,4.08,0,0,0,54.92,259Z" fill="#fff"/><path d="M80.82,258.91a5.77,5.77,0,0,0-2.3.3,63.08,63.08,0,0,1,11-9.55A3.92,3.92,0,0,0,86.42,248a56.85,56.85,0,0,0-10.87,11.49,5.24,5.24,0,0,0,1.36,2.45,12.89,12.89,0,0,1,2.34-.22c4.61,0,9.07,1.87,9.07,7.17H68.63v-19a5.41,5.41,0,0,0-3.25,1c.22,3.73.88,20.68.88,20.68H90.41a17.54,17.54,0,0,0,.47-3.55C90.88,262.46,86.09,258.91,80.82,258.91Z" fill="#fff"/><path d="M96.19,247.75a2.21,2.21,0,0,1,2-1.24,3.81,3.81,0,0,1,1.5.4,5,5,0,0,0,.44-1.39,3.72,3.72,0,0,0-2.23-.77,2.79,2.79,0,0,0-1.69,5.09,13.21,13.21,0,0,0-1.83.66,2,2,0,0,0,.52,1.31,17.41,17.41,0,0,1,5.27-.73,6.35,6.35,0,0,0,.29-2.08,6.33,6.33,0,0,1-1.68.18A3.06,3.06,0,0,1,96.19,247.75Z" fill="#fff"/><path d="M96.88,271.54h.66a5.08,5.08,0,0,0,1.72-.66v-18.3a5.38,5.38,0,0,0-3.26,1C96.22,257.45,96.88,271.54,96.88,271.54Z" fill="#fff"/><path d="M123,252.18s-1.32-1.46-2.45-2.56a14.74,14.74,0,0,0-2.49,2.41l2.49,2.46Z" fill="#fff"/><path d="M128.13,252.18s-1.32-1.46-2.41-2.56a14.13,14.13,0,0,0-2.53,2.41l2.53,2.46Z" fill="#fff"/><path d="M138,257.23s-1.32-1.46-2.41-2.53a14,14,0,0,0-2.49,2.38l2.49,2.42Z" fill="#fff"/><path d="M169.46,271.54a20.61,20.61,0,0,0,1.06-6.26,19.37,19.37,0,0,0-.84-5.53,5.11,5.11,0,0,0-3.11,1.36,14.36,14.36,0,0,1,1.17,5.78,16.74,16.74,0,0,1-.14,2h-28a9.63,9.63,0,0,1-3.81-.62,34.47,34.47,0,0,0,1.65-5.3,4.3,4.3,0,0,0-3.26-.63,19.27,19.27,0,0,1-1.35,6.55h-5.6V256.57A6.42,6.42,0,0,0,124,257.7c0,.41,0,.92.07,1.43-3.51,1.14-7.9,4.1-7.9,7.58,0,2.81,3,4.83,7,4.83a14.52,14.52,0,0,0,1.8-2.05,8,8,0,0,0,1.57,2.05h7.42a15.89,15.89,0,0,0,1.14-1.76,5.38,5.38,0,0,0,4.54,1.76h29.91Zm-46.09-2.68a5.27,5.27,0,0,1-4.86-2.67,9.64,9.64,0,0,1,5.67-4.53l.44,7.09A6.06,6.06,0,0,1,123.37,268.86Z" fill="#fff"/><path d="M163.24,274.72a14.91,14.91,0,0,0-2.48,2.41l2.48,2.45,2.45-2.3S164.38,275.82,163.24,274.72Z" fill="#fff"/><path d="M165.88,277.13l2.52,2.45,2.42-2.3s-1.32-1.46-2.42-2.56A14.27,14.27,0,0,0,165.88,277.13Z" fill="#fff"/><path d="M200.47,259a7.39,7.39,0,0,0-1.9,2c-.48,5.12-1.28,7.83-4.94,7.83h-7.7a42.63,42.63,0,0,1-2-12,7,7,0,0,0-3.26.92A53.16,53.16,0,0,0,183,268.2a15.28,15.28,0,0,1-4.47.66,15.91,15.91,0,0,1-4.94-.77,7.45,7.45,0,0,0,0,3.12,26,26,0,0,0,4.17.33,16.22,16.22,0,0,0,6.7-1.18,6.4,6.4,0,0,0,1.24,1.18h8a5.73,5.73,0,0,0,4.68-2.23,5.57,5.57,0,0,0,0,.84,18.84,18.84,0,0,0,7.9,1.72,8.55,8.55,0,0,0,2.31-2.56,9.94,9.94,0,0,0,.33-2.41C209,261.43,204.46,259,200.47,259Zm5.82,10.21a18.74,18.74,0,0,1-6.81-1.57,17.93,17.93,0,0,0,1.36-5.71c2.82.22,5.78,2.38,5.78,5.38A6.13,6.13,0,0,1,206.29,269.19Z" fill="#fff"/><path d="M76,253.41a12.44,12.44,0,0,1,0-2.95c1.34-.05,3,0,3,0l0,2.87Z" fill="#fff"/><path d="M75.42,249.64a11.57,11.57,0,0,1,0-2.58c1.16-.05,2.62,0,2.62,0l0,2.47Z" fill="#fff"/><path d="M79,250.26a12,12,0,0,1,0-3c1.33,0,3,0,3,0v2.85Z" fill="#fff"/><path d="M13.12,237.1a3.77,3.77,0,0,1,0,2.61H5.29c-3,0-4.15-.09-5-.71,1.35-2.09,3.62-5.41,5.62-8.42-2.06-3-4.27-6.11-5.62-8.23.83-.58,2-1.16,5-1.16h7.83a3.68,3.68,0,0,1,0,2.58H4.58c1.2,1.78,2.27,3.47,3.56,5.37a2.17,2.17,0,0,1,0,2.77c-1.29,2-2.27,3.44-3.44,5.19Z" fill="#fff"/><path d="M20.54,221.25V229c2.27-.09,5.1-.22,7.34-.37-.09-2-.15-4-.27-6.21a4.41,4.41,0,0,1,2.91-1.16c.06,2.64.06,4.82,0,10a7.11,7.11,0,0,1-2.33.25H25.46c0,2.67,0,5.31,0,7.92a5.14,5.14,0,0,1-2.42.28c0-1.51,0-4.52-.16-8.2h-5c-.12-4.43-.22-6.7-.34-9.07A4.79,4.79,0,0,1,20.54,221.25Z" fill="#fff"/><path d="M35.37,230.4c0-5.19,2.79-9.49,9.15-9.49,6.54,0,9.24,4.3,9.24,9.49S50.91,240,44.61,240C38,240,35.37,235.71,35.37,230.4Zm13.54,6.33a10.23,10.23,0,0,0,1.91-6.33c0-3.75-1.94-6.88-6.3-6.88-1.35,0-3.44.09-4.33.65-1,1-1.88,3.56-1.88,6.23,0,3.81,1.85,7,6.3,7A12.06,12.06,0,0,0,48.91,236.73Z" fill="#fff"/><path d="M59.62,222.48c.83-.59,2-1.17,5-1.17h7.83a3.44,3.44,0,0,1,0,2.49H62.6v13.51h9.83a3.29,3.29,0,0,1,0,2.43H60.08C60.08,237.13,60,230,59.62,222.48Z" fill="#fff"/><path d="M88.71,222.45a4.83,4.83,0,0,1,3.07-1.17q0,8.9,0,18.15a5.86,5.86,0,0,1-2.58.28C89.2,237.1,89.07,229.94,88.71,222.45Z" fill="#fff"/><path d="M105.46,225.76c0-2.4,1.25-4.33,4.16-4.33s4.27,1.93,4.27,4.33-1.36,4.34-4.18,4.34C106.68,230.1,105.46,228.2,105.46,225.76Zm0,9.71c0-2.37,1.25-4.3,4.16-4.3s4.27,1.93,4.27,4.3-1.36,4.37-4.18,4.37C106.68,239.84,105.46,237.94,105.46,235.47Zm5.7-7.57a3.66,3.66,0,0,0,.6-2.17,2,2,0,0,0-2.14-2.25,4,4,0,0,0-1.46.18,3.34,3.34,0,0,0-.56,2.07,2,2,0,0,0,2.11,2.32A4.49,4.49,0,0,0,111.16,227.9Zm0,9.74a3.66,3.66,0,0,0,.6-2.17,2,2,0,0,0-2.14-2.25,3.91,3.91,0,0,0-1.46.18,3.34,3.34,0,0,0-.56,2.07c0,1.25.56,2.32,2.11,2.32A4.4,4.4,0,0,0,111.16,237.64Z" fill="#fff"/><path d="M134.1,239.15a4.66,4.66,0,0,1-3,.53l-3.65-6c-1.94,3.19-3.57,5.86-3.66,6a4.74,4.74,0,0,1-3-.53c1.6-2.48,3.38-5.16,5.16-7.89l-5.4-8.85c.83-.58,2-1.16,5-1.16h7.83a4.2,4.2,0,0,1,0,2.76c-.92,1.48-2.7,4.33-4.45,7.25C130.72,234,132.5,236.67,134.1,239.15ZM127.47,229c1.1-1.69,2.18-3.35,3.19-5h-6.39C125.29,225.64,126.39,227.3,127.47,229Z" fill="#fff"/><path d="M138.3,234.24c0-3,1.63-5.53,5.34-5.53,3.87,0,5.44,2.49,5.44,5.53s-1.69,5.59-5.35,5.59C139.83,239.83,138.3,237.37,138.3,234.24Zm7.37,2.92a4.85,4.85,0,0,0,.86-2.92c0-1.69-.86-3.1-2.89-3.1a4.79,4.79,0,0,0-2,.27,4.7,4.7,0,0,0-.8,2.83c0,1.75.8,3.23,2.88,3.23A5.45,5.45,0,0,0,145.67,237.16Z" fill="#fff"/><path d="M169.31,239.15a5,5,0,0,1-3.19.56l-5.16-15-5.16,15a5.43,5.43,0,0,1-3.2-.56l6.85-17.81a8.46,8.46,0,0,1,3,0Z" fill="#fff"/><path d="M186.53,237.1a3.77,3.77,0,0,1,0,2.61H178.7c-3,0-4.15-.09-5-.71,1.35-2.09,3.63-5.41,5.62-8.42-2.05-3-4.27-6.11-5.62-8.23.83-.58,2-1.16,5-1.16h7.83a3.68,3.68,0,0,1,0,2.58H178c1.2,1.78,2.27,3.47,3.56,5.37a2.17,2.17,0,0,1,0,2.77c-1.29,2-2.27,3.44-3.44,5.19Z" fill="#fff"/><path d="M191.1,230.4c0-5.19,2.79-9.49,9.15-9.49,6.54,0,9.24,4.3,9.24,9.49s-2.85,9.55-9.15,9.55C193.77,240,191.1,235.71,191.1,230.4Zm13.54,6.33a10.17,10.17,0,0,0,1.91-6.33c0-3.75-1.94-6.88-6.3-6.88-1.35,0-3.44.09-4.33.65-1,1-1.88,3.56-1.88,6.23,0,3.81,1.85,7,6.3,7A12.06,12.06,0,0,0,204.64,236.73Z" fill="#fff"/></svg>